<svg id="Capa_1" data-name="Capa 1" xmlns="http://www.w3.org/2000/svg" xmlns:xlink="http://www.w3.org/1999/xlink" viewBox="0 0 477.61 193.29"><defs><style>.cls-1,.cls-2{stroke:#160607;stroke-miterlimit:10;}.cls-1{stroke-width:1.5px;fill:url(#Degradado_sin_nombre_3);}.cls-2{fill:#fbb90f;stroke-width:0.75px;}.cls-3{fill:#230b0c;}.cls-4{fill:#220b0c;}.cls-5{fill:#fff;opacity:0.26;}</style><radialGradient id="Degradado_sin_nombre_3" cx="238.55" cy="61.23" r="42.27" gradientUnits="userSpaceOnUse"><stop offset="0" stop-color="#ef7900"/><stop offset="1" stop-color="#e8441d"/></radialGradient></defs><circle class="cls-1" cx="238.55" cy="61.23" r="42.27"/><path class="cls-2" d="M284.23,285.15c-2.5,2.51-25,25.83-18.75,54.09,2.34,10.5,10.47,31.62,42.55,36.88,19.26,3.15,35.87-6,40.36-8.84a135.23,135.23,0,0,1-18.81-11.62c-6.76-5-16.41-12.23-25.2-24.45-6.59-9.17-9.94-17.33-13.19-25.21A160.47,160.47,0,0,1,284.23,285.15Z" transform="translate(-60.49 -275.84)"/><rect class="cls-3" x="236.83" width="1.87" height="12.79" rx="0.93"/><rect class="cls-3" x="353.21" y="329.55" width="1.87" height="12.79" rx="0.93" transform="translate(-42.28 414.25) rotate(-90)"/><rect class="cls-3" x="243.77" y="329.55" width="1.87" height="12.79" rx="0.93" transform="translate(-151.73 304.81) rotate(-90)"/><rect class="cls-3" x="339.34" y="294.12" width="1.87" height="12.79" rx="0.93" transform="translate(251.67 -428.43) rotate(45)"/><rect class="cls-3" x="257.54" y="294.12" width="1.87" height="12.79" rx="0.93" transform="translate(593.25 54.4) rotate(135)"/><path class="cls-4" d="M116.54,372.88q1.14-3.44,1.79-6a30.08,30.08,0,0,1,1.36-4.29,21.91,21.91,0,0,0-2.86-.43c-1-.1-2-.15-2.72-.15a22,22,0,0,0-9.87,2.58,37.91,37.91,0,0,0-9.43,6.72,35.8,35.8,0,0,0-7,9.44,23.56,23.56,0,0,0-2.72,10.87c0,1.9.45,3.24,1.36,4a5.25,5.25,0,0,0,3.5,1.14,19.42,19.42,0,0,0,6.22-1.07,47.66,47.66,0,0,0,6-2.43c1.86-.91,3.38-1.72,4.58-2.43a8.53,8.53,0,0,1,2.07-1.07q.72,0,1.5,1.14a13.35,13.35,0,0,1,1.5,3.86,74.47,74.47,0,0,0-26.52,16.3,50.84,50.84,0,0,0-9.44,12.23,28.33,28.33,0,0,0-3.65,13.8c0,1,0,2.17.07,3.65A9.89,9.89,0,0,0,73.43,445a9.49,9.49,0,0,0,3.36,3.57q2.28,1.5,6.86,1.5a19.61,19.61,0,0,0,10.73-3.29,39.65,39.65,0,0,0,9.15-8.08,45.35,45.35,0,0,0,6.5-10.22,28.13,28.13,0,0,0,2.79-9.72,8.52,8.52,0,0,1,1.5.78,29.37,29.37,0,0,1,2.79,1.86,33.05,33.05,0,0,1,2.65,2.22,3.08,3.08,0,0,1,1.21,2,16.73,16.73,0,0,1-3.14,9.08,33.76,33.76,0,0,1-8.72,8.79A50,50,0,0,1,96,450.1a44.55,44.55,0,0,1-16.09,2.29,31.82,31.82,0,0,1-7.5-1.14,17.79,17.79,0,0,1-6.15-3.08,14.83,14.83,0,0,1-4.22-5.29,16.88,16.88,0,0,1-1.57-7.51,24.81,24.81,0,0,1,3.93-13.8,47.75,47.75,0,0,1,9.36-10.65,68.84,68.84,0,0,1,11-7.65c3.71-2,6.72-3.65,9-4.79v-.14l-1.71.57a12.74,12.74,0,0,1-3.29.43,29.2,29.2,0,0,1-3.08-.29,19.15,19.15,0,0,1-4.57-1.21,12.12,12.12,0,0,1-4.29-2.94,9.2,9.2,0,0,1-2.36-5.43,19.22,19.22,0,0,1,1.86-11.37A36.16,36.16,0,0,1,83.65,368,37.24,37.24,0,0,1,94,360.73,26.37,26.37,0,0,1,105.24,358a33.53,33.53,0,0,1,10.09,1.14,12.56,12.56,0,0,1,4.5,2.29q1-2.85,1.5-4.29c.33-.95.65-1.81.93-2.57.38.28,1,.69,1.86,1.21l2.65,1.65c.9.57,1.69,1.12,2.36,1.64s1,.93,1,1.22a11.66,11.66,0,0,1-.5,2.36q-.51,1.79-1.29,4.14t-1.72,5.08c-.62,1.81-1.21,3.58-1.78,5.29-.39-.09-1-.31-1.94-.64s-1.83-.72-2.78-1.15a17.15,17.15,0,0,1-2.51-1.35C116.9,373.55,116.54,373.17,116.54,372.88Z" transform="translate(-60.49 -275.84)"/><path class="cls-4" d="M164,417.71q2.07-3.36,5.79-8.93a72.2,72.2,0,0,1,7.58-9.66q3.85-4.06,6.86-4.07a4.32,4.32,0,0,1,2.5.83,12.93,12.93,0,0,1,2.29,2,10.64,10.64,0,0,1,1.72,2.46,5.21,5.21,0,0,1,.64,2.29,17.54,17.54,0,0,1-.86,4.36c-.57,1.95-1.26,4.1-2.07,6.43s-1.67,4.72-2.58,7.15-1.69,4.65-2.35,6.65-1.2,3.65-1.58,4.94-.38,1.93,0,1.93,1.17-.77,2.36-2.29,2.62-3.55,4.29-6.08,3.51-5.43,5.51-8.72,4-6.75,6.15-10.37v2.57q-8.88,15.74-13.8,22.81t-7.94,7.37a5,5,0,0,1-4.5-1.93,9.54,9.54,0,0,1-2.36-4.51,13.15,13.15,0,0,1,.64-5.22c.62-2.24,1.43-4.64,2.43-7.22s2.07-5.22,3.22-7.94,2.14-5.17,3-7.36a56.28,56.28,0,0,0,1.86-5.36c.38-1.38.29-2.08-.29-2.08-.76,0-2.36,1.27-4.79,3.79a79.43,79.43,0,0,0-8.08,10.37,134.55,134.55,0,0,0-7.5,12.51,117.64,117.64,0,0,0-6.65,14.8A8.46,8.46,0,0,1,153,438a20.13,20.13,0,0,1-2.72-2.29,18,18,0,0,1-2.15-2.57,3.35,3.35,0,0,1-.71-2.29,58.09,58.09,0,0,1,2.64-9.51q1.94-5.37,3.79-10.3t3.08-8.44c.81-2.33,1-3.64.5-3.93s-1.69.65-3.65,2.5a73.3,73.3,0,0,0-7,8.08,122.3,122.3,0,0,0-8.51,12.87,108.87,108.87,0,0,0-7.87,16.74,8.12,8.12,0,0,1-1.93-1.29,26.88,26.88,0,0,1-2.43-2.29c-.81-.86-1.55-1.72-2.22-2.57a3.89,3.89,0,0,1-1-2,10.88,10.88,0,0,1,.58-3.43c.47-1.81,1.09-4,1.85-6.65s1.6-5.45,2.51-8.51,1.76-6,2.57-8.93,1.5-5.58,2.07-8,1-4.31,1.15-5.65a13.46,13.46,0,0,1,2.21,1.32,27.62,27.62,0,0,1,2.94,2.36c.95.89,1.78,1.73,2.5,2.54s1.07,1.36,1.07,1.65a15,15,0,0,1-.57,2.71c-.38,1.43-.84,3.13-1.36,5.08s-1.12,4.05-1.79,6.29-1.31,4.34-1.93,6.29-1.17,3.7-1.64,5.22a27.22,27.22,0,0,0-.86,3.15q1.58-3.29,4.86-8.65t7.15-10.51a78.56,78.56,0,0,1,7.65-8.87c2.53-2.48,4.74-3.72,6.65-3.72a4,4,0,0,1,2.43.86,10,10,0,0,1,2,2,10.4,10.4,0,0,1,1.35,2.43,6.33,6.33,0,0,1,.5,2.29q-.14,2.58-2.36,8.37a125.37,125.37,0,0,0-4.21,13.65h.14C161.35,422,162.56,420,164,417.71Z" transform="translate(-60.49 -275.84)"/><path class="cls-4" d="M234.37,418.07a76.93,76.93,0,0,1,10.44-2.86l-.14,1.29q-2.29.57-5,1.28a41.46,41.46,0,0,0-5.72,2,64.13,64.13,0,0,1-9.08,14.44q-4.94,5.72-11.22,5.72a9.06,9.06,0,0,1-5.72-1.57,4.33,4.33,0,0,1-2-3.29,6.61,6.61,0,0,1,1.36-3.79,19.88,19.88,0,0,1,3.72-3.86,36.4,36.4,0,0,1,5.43-3.65q3.08-1.71,6.65-3.29a38.23,38.23,0,0,0,2.15-5.86,58.15,58.15,0,0,0,1.72-7.72,25.56,25.56,0,0,0,.21-6.72c-.24-1.91-1-2.86-2.36-2.86q-1.14,0-3.5,3a77.9,77.9,0,0,0-5.58,8.44q-3.22,5.43-7.08,12.87t-7.86,16.15q-3,9.3-5.22,16.74t-2.22,9.86v1.22a16.35,16.35,0,0,0,.14,1.64,7.27,7.27,0,0,1-2.64-1.5A25.17,25.17,0,0,1,188,463a26.26,26.26,0,0,1-2.29-2.86,4.68,4.68,0,0,1-.93-1.78,33.26,33.26,0,0,1,1.43-7.23q1.42-5.21,3.65-12t4.72-14.37q2.49-7.57,4.71-14.44t3.65-12.23a34.84,34.84,0,0,0,1.43-7.51,6.92,6.92,0,0,1,2.36,1.15,33.78,33.78,0,0,1,2.86,2.14,28.6,28.6,0,0,1,2.43,2.29c.72.77,1.07,1.29,1.07,1.57a16.92,16.92,0,0,1-1.07,4.51c-.71,2.14-1.6,4.7-2.64,7.65s-2.2,6.13-3.44,9.51-2.38,6.7-3.43,9.94h.14q2.3-4.86,5.22-10.73t6.08-11a72.53,72.53,0,0,1,6.29-8.86q3.15-3.72,6.15-4.44c3-.66,5.41-.38,7.08.86a8.81,8.81,0,0,1,3.29,5.43,22.54,22.54,0,0,1,.07,8.23A46,46,0,0,1,234.37,418.07Zm-12,4.15a63.77,63.77,0,0,0-10.37,6q-4.37,3.19-4.36,6.31a1.67,1.67,0,0,0,.72,1.48,3.16,3.16,0,0,0,1.85.5c2.2,0,4.34-1.35,6.44-4A44.46,44.46,0,0,0,222.36,422.22Z" transform="translate(-60.49 -275.84)"/><path class="cls-4" d="M261.54,393.19a17,17,0,0,1,3.15.36c1.23.24,2.47.52,3.71.86a31.76,31.76,0,0,1,3.36,1.08,9.15,9.15,0,0,1,2.08,1l1.14-2.44c.48.19,1.24.43,2.29.72s2.1.62,3.15,1,1.95.74,2.71,1.08,1.15.59,1.15.79a27.71,27.71,0,0,1-1,3.15q-1,2.88-2.44,7t-3,8.83q-1.57,4.73-2.86,8.75c-.86,2.68-1.52,4.9-2,6.67s-.57,2.66-.29,2.66,1.31-.74,2.79-2.22,3.24-3.48,5.29-6,4.27-5.49,6.65-8.87a128.11,128.11,0,0,0,6.87-10.94v2.57l-2,3.29c-1,1.72-2.33,3.67-3.86,5.87s-3.19,4.53-5,7-3.6,4.77-5.36,6.87a47.9,47.9,0,0,1-4.94,5.15c-1.52,1.33-2.81,2-3.86,2a14.57,14.57,0,0,1-1.57-.15,10.65,10.65,0,0,1-2.36-.57,6.09,6.09,0,0,1-2.15-1.28,3,3,0,0,1-.93-2.29,21.61,21.61,0,0,1,.93-5.51q.93-3.36,2.36-7.36l3-8.37c1-2.91,2-5.74,2.86-8.51h-.29q-1.58,3.3-4.36,8.94t-6,11.08a81.13,81.13,0,0,1-6.36,9.37q-3.15,3.93-5.29,3.93a9.2,9.2,0,0,1-7-2.87q-2.72-2.87-2.72-8a34.6,34.6,0,0,1,1.86-10,59.48,59.48,0,0,1,4.94-11.33,40.69,40.69,0,0,1,7.08-9.33Q257.24,393.19,261.54,393.19Zm8.87,3.72a10.11,10.11,0,0,0-6.8,2.86,33.28,33.28,0,0,0-5.93,7.15,55.38,55.38,0,0,0-4.72,9.36,76.44,76.44,0,0,0-3.08,9.37,27.76,27.76,0,0,0-1,7.15c.05,1.91.55,2.86,1.51,2.86.66,0,1.76-.93,3.28-2.79a82,82,0,0,0,5.44-7.72q3.13-4.93,6.79-11.87t7.37-15.09A3.44,3.44,0,0,0,270.41,396.91Z" transform="translate(-60.49 -275.84)"/><path class="cls-4" d="M298.57,426.08q1-2.15,2.79-5.29t4-6.58q2.2-3.43,4.64-6.79a73.1,73.1,0,0,1,4.87-6.08,35.28,35.28,0,0,1,4.64-4.43,6.86,6.86,0,0,1,4.08-1.72,4.82,4.82,0,0,1,2.57.79,11.09,11.09,0,0,1,2.36,1.93,10.08,10.08,0,0,1,1.72,2.43,5.21,5.21,0,0,1,.64,2.29,19,19,0,0,1-.78,4.36c-.53,1.95-1.2,4.1-2,6.43s-1.66,4.72-2.57,7.15-1.69,4.65-2.36,6.65-1.17,3.65-1.5,4.94-.31,1.93.07,1.93,1.17-.77,2.36-2.29,2.62-3.55,4.29-6.08,3.5-5.43,5.51-8.72,4.05-6.75,6.14-10.37v2.57q-8.87,15.74-13.79,22.81t-7.94,7.37a5,5,0,0,1-4.51-1.93,9.61,9.61,0,0,1-2.35-4.51,13.81,13.81,0,0,1,.57-5.22,63.38,63.38,0,0,1,2.36-7.22q1.5-3.86,3.14-7.94c1.1-2.71,2.08-5.17,2.93-7.36a42.63,42.63,0,0,0,1.79-5.36c.33-1.38.26-2.08-.21-2.08q-1.15,0-4.29,3.29a86.21,86.21,0,0,0-7.22,8.94,134.33,134.33,0,0,0-8.3,13.23,126.81,126.81,0,0,0-7.51,16.16,12,12,0,0,1-2-1.15,28.72,28.72,0,0,1-2.57-1.93,25.24,25.24,0,0,1-2.29-2.14,3,3,0,0,1-1-1.79,18.64,18.64,0,0,1,.71-2.86q.72-2.43,1.86-5.93c.77-2.34,1.58-4.91,2.43-7.73s1.67-5.52,2.43-8.15,1.39-5,1.86-7.22a25.49,25.49,0,0,0,.72-5v-1.22a12.66,12.66,0,0,0-.14-1.5,16,16,0,0,1,3,1.07,28.2,28.2,0,0,1,3.29,1.79,22.16,22.16,0,0,1,2.64,1.93q1.08.93,1.08,1.5a14.62,14.62,0,0,1-.58,4q-.57,2-1.57,5T302,415.35Q300.43,419.64,298.57,426.08Z" transform="translate(-60.49 -275.84)"/><path class="cls-4" d="M355.77,393.19a17,17,0,0,1,3.15.36c1.24.24,2.48.52,3.72.86a31.76,31.76,0,0,1,3.36,1.08,9,9,0,0,1,2.07,1l1.15-2.44a23.24,23.24,0,0,0,2.28.72c1.05.28,2.1.62,3.15,1s2,.74,2.72,1.08,1.14.59,1.14.79a25.46,25.46,0,0,1-1,3.15l-2.43,7q-1.44,4.1-3,8.83c-1.05,3.15-2,6.07-2.86,8.75s-1.53,4.9-2,6.67-.57,2.66-.28,2.66,1.31-.74,2.79-2.22,3.24-3.48,5.29-6,4.26-5.49,6.65-8.87a125.63,125.63,0,0,0,6.86-10.94v2.57c-.28.48-.95,1.58-2,3.29s-2.34,3.67-3.86,5.87-3.2,4.53-5,7-3.6,4.77-5.36,6.87a47.9,47.9,0,0,1-4.93,5.15c-1.53,1.33-2.82,2-3.86,2a14.47,14.47,0,0,1-1.58-.15,10.78,10.78,0,0,1-2.36-.57,6,6,0,0,1-2.14-1.28,3,3,0,0,1-.93-2.29,21.61,21.61,0,0,1,.93-5.51c.62-2.24,1.4-4.69,2.36-7.36s2-5.46,3-8.37,2-5.74,2.86-8.51h-.28q-1.59,3.3-4.37,8.94t-6,11.08a81.11,81.11,0,0,1-6.37,9.37c-2.09,2.62-3.86,3.93-5.29,3.93a9.18,9.18,0,0,1-7-2.87q-2.71-2.87-2.72-8a34.27,34.27,0,0,1,1.86-10,59.44,59.44,0,0,1,4.93-11.33,40.69,40.69,0,0,1,7.08-9.33Q351.48,393.19,355.77,393.19Zm8.87,3.72a10.08,10.08,0,0,0-6.79,2.86,33,33,0,0,0-5.94,7.15,56.13,56.13,0,0,0-4.72,9.36,76.27,76.27,0,0,0-3.07,9.37,27.33,27.33,0,0,0-1,7.15c.05,1.91.55,2.86,1.5,2.86.67,0,1.76-.93,3.29-2.79a82.19,82.19,0,0,0,5.43-7.72q3.15-4.93,6.8-11.87t7.36-15.09A3.43,3.43,0,0,0,364.64,396.91Z" transform="translate(-60.49 -275.84)"/><path class="cls-4" d="M436,409.2c-.39.86-1.05,2.2-2,4s-2.07,3.81-3.36,6-2.69,4.44-4.21,6.73-3,4.38-4.51,6.29a38.92,38.92,0,0,1-4.22,4.72c-1.33,1.24-2.48,1.86-3.43,1.86a14.68,14.68,0,0,1-1.72-.15,9.52,9.52,0,0,1-2.28-.57,5.55,5.55,0,0,1-2-1.29,2.89,2.89,0,0,1-.85-2.14,22.42,22.42,0,0,1,.64-4.36c.43-2,1-4.22,1.79-6.8s1.62-5.41,2.57-8.5,2-6.32,3.15-9.66h-.29q-1.58,3.3-4.29,8.8T405.11,425a79.89,79.89,0,0,1-6.29,9.29q-3.15,3.93-5.44,3.93a11.18,11.18,0,0,1-3.93-.71,8.82,8.82,0,0,1-3.36-2.22,11.15,11.15,0,0,1-2.29-3.72,13.12,13.12,0,0,1-.71-5.36,41.77,41.77,0,0,1,1.64-9.58,56,56,0,0,1,4.08-10.51,36,36,0,0,1,6.07-8.72,12.21,12.21,0,0,1,7.37-4.08,25.51,25.51,0,0,1,3.72,0,24.32,24.32,0,0,1,4.36.72,28.67,28.67,0,0,1,4.22,1.43,14.62,14.62,0,0,1,3.28,1.86l1.43-3q1.58-4.57,3.08-9.29t2.72-8.73c.81-2.66,1.47-5,2-6.93a18.85,18.85,0,0,0,.78-4.22,5.7,5.7,0,0,0-.07-1.07c0-.24-.16-.74-.35-1.5a10.06,10.06,0,0,1,2.93,1.29,29.68,29.68,0,0,1,3.14,2.22,20.83,20.83,0,0,1,2.51,2.36c.66.76,1,1.29,1,1.58a31.85,31.85,0,0,1-1.72,7.16q-1.71,5.44-4.15,12.68t-5.22,15.19q-2.79,7.95-5,14.62t-3.36,11q-1.16,4.36-.43,4.37c.38,0,1.24-.87,2.57-2.59s2.91-3.95,4.72-6.68,3.72-5.77,5.72-9.13,4-6.71,5.87-10.06Zm-41,26c.66,0,1.73-.9,3.21-2.72a71.7,71.7,0,0,0,5.22-7.58q3-4.86,6.65-11.58t7.37-14.87c-.77-.29-1.67-.57-2.72-.86a13.31,13.31,0,0,0-3.43-.43,9.11,9.11,0,0,0-6.37,2.79,26.28,26.28,0,0,0-5.14,7.08,55.43,55.43,0,0,0-3.72,9.15,71,71,0,0,0-2.22,9.15,27.36,27.36,0,0,0-.43,7.08C393.57,434.3,394.1,435.23,395,435.23Z" transform="translate(-60.49 -275.84)"/><path class="cls-4" d="M451.72,393.19a17,17,0,0,1,3.15.36c1.24.24,2.48.52,3.72.86a31.76,31.76,0,0,1,3.36,1.08,9,9,0,0,1,2.07,1l1.15-2.44a23.24,23.24,0,0,0,2.28.72c1.05.28,2.1.62,3.15,1s1.95.74,2.72,1.08,1.14.59,1.14.79a25.46,25.46,0,0,1-1,3.15l-2.43,7c-.95,2.73-2,5.67-3,8.83s-2,6.07-2.86,8.75-1.53,4.9-2,6.67-.57,2.66-.28,2.66,1.31-.74,2.79-2.22,3.24-3.48,5.29-6,4.26-5.49,6.65-8.87a125.63,125.63,0,0,0,6.86-10.94v2.57c-.28.48-1,1.58-2,3.29s-2.34,3.67-3.86,5.87-3.2,4.53-5,7-3.6,4.77-5.36,6.87a47.9,47.9,0,0,1-4.93,5.15c-1.53,1.33-2.82,2-3.86,2a14.47,14.47,0,0,1-1.58-.15,10.78,10.78,0,0,1-2.36-.57,6,6,0,0,1-2.14-1.28,3,3,0,0,1-.93-2.29,21.61,21.61,0,0,1,.93-5.51c.62-2.24,1.4-4.69,2.36-7.36s1.95-5.46,3-8.37,2-5.74,2.86-8.51h-.28q-1.59,3.3-4.37,8.94t-6,11.08a81.11,81.11,0,0,1-6.37,9.37c-2.09,2.62-3.86,3.93-5.29,3.93a9.18,9.18,0,0,1-7-2.87q-2.71-2.87-2.72-8a34.27,34.27,0,0,1,1.86-10,59.44,59.44,0,0,1,4.93-11.33,40.69,40.69,0,0,1,7.08-9.33Q447.44,393.19,451.72,393.19Zm8.87,3.72a10.08,10.08,0,0,0-6.79,2.86,33,33,0,0,0-5.94,7.15,56.13,56.13,0,0,0-4.72,9.36,78,78,0,0,0-3.07,9.37,27.33,27.33,0,0,0-1,7.15c.05,1.91.55,2.86,1.5,2.86.67,0,1.76-.93,3.29-2.79a82.19,82.19,0,0,0,5.43-7.72q3.15-4.93,6.8-11.87t7.36-15.09A3.43,3.43,0,0,0,460.59,396.91Z" transform="translate(-60.49 -275.84)"/><path class="cls-4" d="M534.81,395.76a6.68,6.68,0,0,1-.36,2.79c-.34,1-.72,2-1.15,3.07s-.83,2.1-1.21,3.15a9.2,9.2,0,0,0-.57,3.15,26.41,26.41,0,0,1-3-.79,19.36,19.36,0,0,1-2.86-1.14,9.16,9.16,0,0,1-2.07-1.36,1.51,1.51,0,0,1-.64-1.43,6.66,6.66,0,0,1,.43-2,15.63,15.63,0,0,0-4.22,1,25.52,25.52,0,0,0-4.51,2.14,12.52,12.52,0,0,0-3.43,2.93,4.43,4.43,0,0,0-1,3.51,5.92,5.92,0,0,0,1.64,3,26.28,26.28,0,0,0,3.51,3,87,87,0,0,1,10.37-2.86,74.29,74.29,0,0,1,12.36-1.57v1.29a41.4,41.4,0,0,0-5.79.43c-2,.28-4,.62-6,1s-3.79.81-5.51,1.28-3.14.91-4.29,1.29c.67.57,1.48,1.24,2.43,2s1.86,1.53,2.72,2.29a16,16,0,0,1,2.14,2.29,3.6,3.6,0,0,1,.86,2.14,9.58,9.58,0,0,1-2.5,6.65,22.06,22.06,0,0,1-5.93,4.65,29.31,29.31,0,0,1-6.87,2.72,23.6,23.6,0,0,1-5.15.86,9.34,9.34,0,0,1-3.07-.65,16.87,16.87,0,0,1-3.36-1.64,12.52,12.52,0,0,1-2.65-2.22,3.64,3.64,0,0,1-1.07-2.36,9.06,9.06,0,0,1,1.5-4.93,19.22,19.22,0,0,1,4.15-4.51,37.76,37.76,0,0,1,6.15-4,72.37,72.37,0,0,1,7.51-3.43c-1-.76-2.06-1.6-3.29-2.5a35,35,0,0,1-3.44-2.86,16.85,16.85,0,0,1-2.71-3.36,7.56,7.56,0,0,1-1.15-4,6.74,6.74,0,0,1,1.51-3.93,19.41,19.41,0,0,1,3.64-3.79,21,21,0,0,1,4.58-2.79,10.94,10.94,0,0,1,4.29-1.07,5.83,5.83,0,0,1,4,1.93,34.06,34.06,0,0,1,3.43,3.79c.48-1.34.91-2.67,1.29-4a6.88,6.88,0,0,0,.29-3.28c1,.19,2,.42,3,.71s2,.6,2.86.93a7.41,7.41,0,0,1,2.14,1.22A2.74,2.74,0,0,1,534.81,395.76Zm-20.6,22.74q-9.72,3.57-14.22,7.72t-4.51,7.15a1.25,1.25,0,0,0,1.14,1.36,12.75,12.75,0,0,0,2.29.21,13.92,13.92,0,0,0,4.79-1.14,29.57,29.57,0,0,0,5.72-3,23.74,23.74,0,0,0,4.79-4.15,7,7,0,0,0,2-4.58,3.77,3.77,0,0,0-.58-1.85A6.11,6.11,0,0,0,514.21,418.5Z" transform="translate(-60.49 -275.84)"/><path class="cls-4" d="M492.15,399.11a1.69,1.69,0,0,1-1.36.23,14.08,14.08,0,0,1-2.24-.47,15.69,15.69,0,0,1-2.54-1,6.85,6.85,0,0,1-2.12-1.6,9.18,9.18,0,0,0,2-2.89c.86-1.61,1.75-3.32,2.65-5.13l2.54-5.07a16.14,16.14,0,0,1,1.53-2.72,3.54,3.54,0,0,1,3-.71,7.22,7.22,0,0,1,3.95,1.89,12.26,12.26,0,0,0-1.83,3.42q-1.11,2.71-2.24,5.73c-.75,2-1.43,3.83-2.06,5.48A12.14,12.14,0,0,1,492.15,399.11Z" transform="translate(-60.49 -275.84)"/><path class="cls-4" d="M245.71,468.66V450.78h3.1a15.42,15.42,0,0,1,2.94.2,3.86,3.86,0,0,1,1.54.67,4.55,4.55,0,0,1,1.36,1.64,5,5,0,0,1,.46,2.14,3.91,3.91,0,0,1-.75,2.43,3.45,3.45,0,0,1-2.05,1.32,4.25,4.25,0,0,1,2.7,1.38,4.2,4.2,0,0,1,1,2.85,6.2,6.2,0,0,1-.38,2.23,4.54,4.54,0,0,1-1.15,1.69,4.48,4.48,0,0,1-1.88,1,16.08,16.08,0,0,1-3.75.3Zm1.62-9.93h2a5.19,5.19,0,0,0,3.16-.73,3,3,0,0,0,.92-2.44,3.23,3.23,0,0,0-.9-2.6,5,5,0,0,0-3.18-.76h-2Zm0,8.52h2.08a13.13,13.13,0,0,0,2.44-.15,2.6,2.6,0,0,0,1.13-.5,2.93,2.93,0,0,0,.92-1.21,4,4,0,0,0,.34-1.65,4.31,4.31,0,0,0-.38-1.89,2.62,2.62,0,0,0-1.05-1.21,3.42,3.42,0,0,0-1.09-.39,11.49,11.49,0,0,0-2-.12h-2.43Z" transform="translate(-60.49 -275.84)"/><path class="cls-4" d="M262.47,450.78h1.6v11.67a5.61,5.61,0,0,0,1.2,3.94,5.91,5.91,0,0,0,7.37,0,5.61,5.61,0,0,0,1.2-3.94V450.78h1.63v11.15q0,3.63-1.61,5.41a7.57,7.57,0,0,1-9.78,0c-1.08-1.19-1.61-3-1.61-5.41Z" transform="translate(-60.49 -275.84)"/><path class="cls-4" d="M297.49,455.28a7.15,7.15,0,0,0-6.25-3.42,7.06,7.06,0,0,0-5.41,2.24,8.9,8.9,0,0,0-1.53,8.84,7.69,7.69,0,0,0,1.61,2.52,7.4,7.4,0,0,0,2.41,1.63,7.7,7.7,0,0,0,2.92.54,6.82,6.82,0,0,0,4.88-1.77,6.19,6.19,0,0,0,1.94-4.63H291.9v-1.4h7.94V460a9.25,9.25,0,0,1-2.33,6.69,8.46,8.46,0,0,1-6.42,2.42,8.75,8.75,0,0,1-6.58-2.59,9.28,9.28,0,0,1-2.51-6.78,10.53,10.53,0,0,1,.63-3.65,8.57,8.57,0,0,1,1.83-3,8.43,8.43,0,0,1,2.92-2.06,9.26,9.26,0,0,1,3.64-.69,10.28,10.28,0,0,1,4.66,1,7,7,0,0,1,3,2.89Z" transform="translate(-60.49 -275.84)"/><path class="cls-4" d="M303.82,468.66l7.85-18.58,7.52,18.58h-1.77l-2.29-6.06h-7.3l-2.36,6.06Zm4.56-7.45h6.23l-3.05-7.78Z" transform="translate(-60.49 -275.84)"/><path class="cls-4" d="M324.19,468.66V450.78h3.1a15.42,15.42,0,0,1,2.94.2,3.86,3.86,0,0,1,1.54.67,4.53,4.53,0,0,1,1.35,1.64,4.9,4.9,0,0,1,.47,2.14,3.91,3.91,0,0,1-.75,2.43,3.45,3.45,0,0,1-2,1.32,4.25,4.25,0,0,1,2.7,1.38,4.2,4.2,0,0,1,1,2.85,6.2,6.2,0,0,1-.38,2.23,4.54,4.54,0,0,1-1.15,1.69,4.48,4.48,0,0,1-1.88,1,16.08,16.08,0,0,1-3.75.3Zm1.62-9.93h2A5.14,5.14,0,0,0,331,458a2.92,2.92,0,0,0,.93-2.44,3.23,3.23,0,0,0-.9-2.6,5,5,0,0,0-3.18-.76h-2Zm0,8.52h2.08a13.13,13.13,0,0,0,2.44-.15,2.66,2.66,0,0,0,1.13-.5,2.93,2.93,0,0,0,.92-1.21,4,4,0,0,0,.34-1.65,4.46,4.46,0,0,0-.38-1.89,2.62,2.62,0,0,0-1-1.21,3.42,3.42,0,0,0-1.09-.39,11.49,11.49,0,0,0-2-.12h-2.43Z" transform="translate(-60.49 -275.84)"/><path class="cls-4" d="M338.58,468.66l7.85-18.58L354,468.66h-1.77l-2.29-6.06h-7.3l-2.36,6.06Zm4.56-7.45h6.23l-3.05-7.78Z" transform="translate(-60.49 -275.84)"/><path class="cls-5" d="M337.75,369.23c.11.53-10.35,5.23-23.19,4-11.48-1.09-20.12-6.47-19.95-6.95s8,3.54,20,4.61C328.17,372.13,337.64,368.73,337.75,369.23Z" transform="translate(-60.49 -275.84)"/></svg>